Coordinates
version=1
nRows=8
nColumns=50
inDegrees=yes

Units are S.I. units (second, meters, Newtons, ...)
If the header above contains a line with 'inDegrees', this indicates whether rotational values are in degrees (yes) or radians (no).

endheader
time	pelvis_tilt	pelvis_list	pelvis_rotation	pelvis_tx	pelvis_ty	pelvis_tz	hip_flexion_r	hip_adduction_r	hip_rotation_r	knee_angle_r	knee_angle_r_beta	ankle_angle_r	subtalar_angle_r	mtp_angle_r	hip_flexion_l	hip_adduction_l	hip_rotation_l	knee_angle_l	knee_angle_l_beta	socket_flexion	socket_adduction	socket_rotation	socket_tx	socket_ty	socket_tz	pros_ankle_rx	pros_ankle_ry	pros_ankle_rz	pros_ankle_tx	pros_ankle_ty	pros_ankle_tz	foot_flex	lumbar_extension	lumbar_bending	lumbar_rotation	arm_flex_r	arm_add_r	arm_rot_r	elbow_flex_r	pro_sup_r	wrist_flex_r	wrist_dev_r	arm_flex_l	arm_add_l	arm_rot_l	elbow_flex_l	pro_sup_l	wrist_flex_l	wrist_dev_l
      0.60209000	      0.00705062	     -4.04579757	      3.41153071	     -0.01050565	      1.01276685	      0.34894740	     26.25093513	      2.40875133	     -1.56971465	      6.96590050	      0.12157790	     14.67966128	      0.00000000	      0.00000000	    -18.18242180	     -4.09246383	     -5.80540475	     15.51763562	      0.27083383	      1.87834643	      1.37090991	     -4.24771725	      0.00000000	      0.00000000	      0.00000000	      0.00000000	      0.00000000	      0.00000000	      0.00000000	      0.00000000	      0.00000000	     25.50726799	    -20.30471416	      2.38220881	     -2.37710164	      0.00000000	    -13.03182093	      0.00000000	     75.36192946	     89.61725738	      0.00000000	      0.00000000	      0.00000000	    -13.03182093	      0.00000000	     75.36192946	     89.61725738	      0.00000000	      0.00000000
      0.60627000	     -0.16012455	     -4.13649087	      3.61729780	     -0.00455160	      1.01131293	      0.34895913	     26.80441473	      2.43317302	     -1.65569364	      7.67129812	      0.13388941	     14.72286963	      0.00000000	      0.00000000	    -18.12060741	     -4.33095954	     -5.67215760	     15.98652964	      0.27901758	      1.96302035	      1.32864845	     -4.20444741	      0.00000000	      0.00000000	      0.00000000	      0.00000000	      0.00000000	      0.00000000	      0.00000000	      0.00000000	      0.00000000	     25.65647614	    -20.10797442	      2.72855395	     -2.62983511	      0.00000000	    -13.04426627	      0.00000000	     75.35746142	     89.62054593	      0.00000000	      0.00000000	      0.00000000	    -13.04426627	      0.00000000	     75.35746142	     89.62054593	      0.00000000	      0.00000000
      0.61045000	     -0.15702779	     -4.23531496	      3.79934321	      0.00155308	      1.01013587	      0.34895966	     26.88093010	      2.52809856	     -1.47266980	      7.89448424	      0.13778474	     14.52731608	      0.00000000	      0.00000000	    -18.30934404	     -4.55120609	     -5.64899276	     16.16756412	      0.28217723	      1.79253482	      1.32324401	     -4.23825552	      0.00000000	      0.00000000	      0.00000000	      0.00000000	      0.00000000	      0.00000000	      0.00000000	      0.00000000	      0.00000000	     25.77197352	    -20.09797545	      2.97800568	     -2.65951189	      0.00000000	    -13.04540854	      0.00000000	     75.35705276	     89.62084737	      0.00000000	      0.00000000	      0.00000000	    -13.04540854	      0.00000000	     75.35705276	     89.62084737	      0.00000000	      0.00000000
      0.61463000	     -0.19799695	     -4.33128380	      3.97103310	      0.00767108	      1.00886018	      0.34902107	     27.33727727	      2.57976568	     -1.58373160	      8.80912173	      0.15374818	     14.58597931	      0.00000000	      0.00000000	    -18.43125072	     -4.77958189	     -5.62549379	     16.48461306	      0.28771077	      1.75724051	      1.31618377	     -4.27532845	      0.00000000	      0.00000000	      0.00000000	      0.00000000	      0.00000000	      0.00000000	      0.00000000	      0.00000000	      0.00000000	     25.85691905	    -20.02211286	      3.24427671	     -2.76052144	      0.00000000	    -13.05343691	      0.00000000	     75.35418651	     89.62296434	      0.00000000	      0.00000000	      0.00000000	    -13.05343691	      0.00000000	     75.35418651	     89.62296434	      0.00000000	      0.00000000
      0.61882000	     -0.20653489	     -4.48399281	      4.14507312	      0.01391040	      1.00767438	      0.34903002	     27.62433448	      2.70324408	     -1.62873833	      9.51848370	      0.16612888	     14.43503074	      0.00000000	      0.00000000	    -18.57696875	     -5.05807972	     -5.64389975	     16.76395885	      0.29258628	      1.62828707	      1.32826232	     -4.29462284	      0.00000000	      0.00000000	      0.00000000	      0.00000000	      0.00000000	      0.00000000	      0.00000000	      0.00000000	      0.00000000	     25.94453657	    -19.96937131	      3.57919310	     -2.78995738	      0.00000000	    -13.05900852	      0.00000000	     75.35220398	     89.62443166	      0.00000000	      0.00000000	      0.00000000	    -13.05900852	      0.00000000	     75.35220398	     89.62443166	      0.00000000	      0.00000000
      0.62300000	     -0.18557478	     -4.60381798	      4.30449437	      0.02009577	      1.00658087	      0.34905740	     27.71399445	      2.83250831	     -1.42657406	      9.93420516	      0.17338459	     14.01981861	      0.00000000	      0.00000000	    -18.74914264	     -5.29628154	     -5.60970814	     16.97568046	      0.29628152	      1.40570958	      1.31778863	     -4.29693919	      0.00000000	      0.00000000	      0.00000000	      0.00000000	      0.00000000	      0.00000000	      0.00000000	      0.00000000	      0.00000000	     26.04676262	    -19.98778819	      3.84388874	     -2.80971436	      0.00000000	    -13.06024270	      0.00000000	     75.35176563	     89.62475646	      0.00000000	      0.00000000	      0.00000000	    -13.06024270	      0.00000000	     75.35176563	     89.62475646	      0.00000000	      0.00000000
      0.62718000	     -0.13094458	     -4.78765923	      4.46083296	      0.02636609	      1.00554633	      0.34905556	     27.86722850	      3.01215729	     -1.39633105	     10.56918213	      0.18446703	     13.58629977	      0.00000000	      0.00000000	    -18.93787102	     -5.60612952	     -5.63036507	     17.21400230	      0.30044102	      1.15154385	      1.31437194	     -4.31192084	      0.00000000	      0.00000000	      0.00000000	      0.00000000	      0.00000000	      0.00000000	      0.00000000	      0.00000000	      0.00000000	     26.15295398	    -20.02312477	      4.21730399	     -2.82940314	      0.00000000	    -13.06163804	      0.00000000	     75.35127034	     89.62512359	      0.00000000	      0.00000000	      0.00000000	    -13.06163804	      0.00000000	     75.35127034	     89.62512359	      0.00000000	      0.00000000
      0.63136000	     -0.21411601	     -4.82933681	      4.56406996	      0.03263204	      1.00421193	      0.34928073	     28.72423939	      2.98410917	     -1.70647734	     12.35359050	      0.21561083	     13.80868626	      0.00000000	      0.00000000	    -18.96379630	     -5.75208424	     -5.63798177	     17.60859976	      0.30732804	      1.06675720	      1.34648560	     -4.31643640	      0.00000000	      0.00000000	      0.00000000	      0.00000000	      0.00000000	      0.00000000	      0.00000000	      0.00000000	      0.00000000	     26.16905484	    -19.88079501	      4.39170257	     -2.82611930	      0.00000000	    -13.07064040	      0.00000000	     75.34808273	     89.62749006	      0.00000000	      0.00000000	      0.00000000	    -13.07064040	      0.00000000	     75.34808273	     89.62749006	      0.00000000	      0.00000000
